<svg width="512" height="512" viewBox="0 0 512 512" fill="none" xmlns="http://www.w3.org/2000/svg">
  <circle cx="256" cy="256" r="256" fill="#4285F4"/>
  <circle cx="256" cy="256" r="200" fill="#FFFFFF"/>
  <path d="M256 90C163.63 90 88 165.63 88 258C88 350.37 163.63 426 256 426C348.37 426 424 350.37 424 258C424 165.63 348.37 90 256 90ZM376.14 180H309.37C303.19 156.88 293.56 134.19 280.45 113.69C322.75 122.19 357.6 146.94 376.14 180ZM256 124.69C273.5 147.31 285.69 173.31 292.19 200H219.81C226.31 173.31 238.5 147.31 256 124.69ZM125.81 292C123.94 280.94 122.94 269.62 122.94 258C122.94 246.37 123.94 235.06 125.81 224H201.06C199.87 235.19 199 246.37 199 258C199 269.62 199.87 280.81 201.06 292H125.81ZM135.86 336H202.63C208.81 359.12 218.44 381.81 231.55 402.31C189.25 393.81 154.4 369.06 135.86 336ZM202.63 180H135.86C154.4 146.94 189.25 122.19 231.55 113.69C218.44 134.19 208.81 156.88 202.63 180ZM256 391.31C238.5 368.69 226.31 342.69 219.81 316H292.19C285.69 342.69 273.5 368.69 256 391.31ZM304 292H208C206.63 280.81 205.63 269.62 205.63 258C205.63 246.37 206.63 235.06 208 224H304C305.37 235.06 306.37 246.37 306.37 258C306.37 269.62 305.37 280.81 304 292ZM280.45 402.31C293.56 381.81 303.19 359.12 309.37 336H376.14C357.6 369.06 322.75 393.81 280.45 402.31ZM386.19 292H310.94C312.13 280.81 313 269.62 313 258C313 246.37 312.13 235.19 310.94 224H386.19C388.06 235.06 389.06 246.37 389.06 258C389.06 269.62 388.06 280.94 386.19 292Z" fill="#4285F4"/>
</svg>
